<svg xmlns="http://www.w3.org/2000/svg" height="800" width="1200" viewBox="-190.2732 -56.055 1649.0344 336.33"><g transform="translate(143.729 -20.155)"><radialGradient gradientUnits="userSpaceOnUse" gradientTransform="matrix(.1019 -4.5937 -4.5813 -.1066 1828.106 -1452.347)" r="25.479" cy="362.989" cx="-353.584" id="a"><stop offset="0" stop-color="#fff"/><stop offset="1" stop-opacity="0"/></radialGradient><circle r="25.492" cy="122.576" cx="-118.237" fill="url(#a)"/><linearGradient gradientTransform="matrix(1 0 0 -1 3.392 264.418)" y2="176.324" x2="220.957" y1="169.96" x1="162.267" gradientUnits="userSpaceOnUse" id="b"><stop offset="0" stop-color="#b2cde9"/><stop offset="1" stop-color="#c4dbee"/></linearGradient><path d="M232.172 88.121c0 15.674-19.791 34.931-45.844 34.931s-59.922-16.081-59.922-31.755 21.119-28.38 47.172-28.38c19.902 0 46.361 18.293 56.46 20.352.792 1.71 1.368 2.925 2.134 4.852z" fill="url(#b)"/><path d="M38.822 65.972c12.382-9.611 35.315-1.246 51.29 19.334 15.975 20.58 17.695 51.065 5.314 60.676-12.382 9.611-34.176-5.292-50.151-25.872-12.205-15.721-4.051-41.19-8.617-50.43a78.85 78.85 0 012.164-3.708z" fill="#2E5C91"/><radialGradient gradientUnits="userSpaceOnUse" gradientTransform="matrix(-.0076 .5575 1.0315 .014 -606.603 -72.664)" r="95.627" cy="711.644" cx="174.404" id="c"><stop offset="0" stop-color="#658db6"/><stop offset=".768" stop-color="#527fab"/><stop offset="1" stop-color="#4071a0"/></radialGradient><path d="M230.043 83.262c-7.008-.033-61.07.29-107.665.065-17.371 5.108-31.705 13.259-39.182 29.155-5.336-4.542-40.746-42.215-44.407-46.44 31.39-41.649 74.528-45.56 82.916-45.56 8.388 0 70.644-8.632 108.338 62.78z" fill="url(#c)"/><path d="M117.125 243.969c-12.499-9.459-14.575-36.939 1.146-57.715 15.721-20.773 41.036-34.947 53.534-25.488 12.498 9.459 7.448 38.967-8.273 59.741-12.01 15.87-35.491 16.885-43.227 23.695-1.24-.046-1.955-.06-3.18-.233z" fill="#699DD3"/><radialGradient gradientUnits="userSpaceOnUse" gradientTransform="matrix(.8129 1.6998 2.1519 -1.0292 -597.486 692.489)" r="60.481" cy="377.974" cx="-103.651" id="d"><stop offset="0" stop-color="#d0e2f1"/><stop offset=".856" stop-color="#cadef0"/><stop offset="1" stop-color="#95bee3"/></radialGradient><path d="M120.303 244.201c3.583-6.023 28.859-52.899 52.691-92.939 4.412-17.561 5.348-33.642-4.559-48.149 6.622-2.294 58.239-13.977 63.737-14.988 19.966 48.18 1.45 87.338-2.806 94.566-4.253 7.227-28.4 65.256-109.063 61.51z" fill="url(#d)"/><radialGradient gradientUnits="userSpaceOnUse" gradientTransform="matrix(-1.2862 -.086 -.1145 1.7137 -770.739 -712.08)" r="59.402" cy="455.101" cx="-712.008" id="e"><stop offset="0" stop-color="#96d0e1"/><stop offset=".678" stop-color="#89b7e1"/><stop offset="1" stop-color="#699dd3"/></radialGradient><path d="M36.697 69.643c3.469 6.089 30.723 52.78 53.779 93.272 13.094 12.505 27.685 19.485 45.191 18.033-1.273 6.892-16.629 57.751-18.464 63.031-51.756-6.421-76.669-41.854-80.854-49.123-4.185-7.269-42.73-56.915.348-125.213z" fill="url(#e)"/><linearGradient gradientTransform="matrix(.7729 0 0 -.7762 395.604 192.888)" y2="128.512" x2="-345.289" y1="30.681" x1="-345.543" gradientUnits="userSpaceOnUse" id="g"><stop offset="0" stop-color="#3b79bc"/><stop offset="1" stop-color="#94b8e0"/></linearGradient><linearGradient y2="358.933" x2="-558.894" y1="487.22" x1="-559.541" gradientUnits="userSpaceOnUse" id="f"><stop offset="0" stop-color="#d7def0"/><stop offset=".5" stop-color="#fff"/><stop offset="1" stop-color="#d5def0"/></linearGradient><path d="M174.31 132c0 25.343-20.458 45.887-45.695 45.887-25.237 0-45.697-20.544-45.697-45.887s20.458-45.888 45.696-45.888S174.31 106.657 174.31 132z" stroke-width="10.07" stroke="url(#f)" fill="url(#g)"/><path d="M163.547 108.896c18.529 17.098 16.032 29.557 10.063 44-3.11-22.25-2.346-32.427-10.063-44zm-62.126 64.743c-22.646-14.473-29.81-45.719-8.813-62.99-10.848 19.775-6.226 32.398 8.813 62.99z" fill="#FFF"/></g><path d="M501.494 160.613c-4.6 2.2-14.8 5.6-27.8 5.6-29.2 0-48.2-19.8-48.2-49.399 0-29.8 20.4-51.599 52-51.599 10.4 0 19.6 2.6 24.4 5.2l-4 13.4c-4.2-2.2-10.8-4.6-20.4-4.6-22.2 0-34.2 16.6-34.2 36.6 0 22.4 14.4 36.2 33.6 36.2 10 0 16.6-2.4 21.6-4.6zm20.6-138.599h17.6v60.6h.4c2.8-5 7.2-9.6 12.6-12.6 5.2-3 11.4-4.8 18-4.8 13 0 33.799 8 33.799 41.198v57.6h-17.6v-55.6c0-15.6-5.8-28.6-22.4-28.6-11.398 0-20.198 8-23.6 17.4-1 2.6-1.2 5.2-1.2 8.4v58.4h-17.6zm110.998 75.399c0-11.4-.2-21.2-.8-30.199h15.399l.8 19.2h.6c4.4-13 15.2-21.2 27-21.2 1.8 0 3.2.2 4.8.4v16.6c-1.8-.4-3.6-.4-6-.4-12.4 0-21.2 9.2-23.6 22.4-.4 2.4-.6 5.4-.6 8.2v51.6h-17.6v-66.6zm150.998 17.4c0 35.8-24.998 51.4-48.198 51.4-26 0-46.4-19.2-46.4-49.8 0-32.2 21.4-51.2 48-51.2 27.8.001 46.599 20.2 46.599 49.6zm-76.597 1c0 21.2 12 37.2 29.199 37.2 16.8 0 29.399-15.8 29.399-37.6 0-16.4-8.2-37-29-37-20.598 0-29.598 19.2-29.598 37.4zm98.799-22.4c0-10.2-.4-18.2-.8-26.199h15.399l.8 15.8h.6c5.4-9.2 14.4-17.8 30.6-17.8 13 0 23 8 27.2 19.4h.4c3-5.6 7-9.6 11-12.6 5.8-4.4 11.999-6.8 21.199-6.8 13 0 32 8.4 32 41.998v56.8h-17.2v-54.6c0-18.8-7-29.8-21-29.8-10.2 0-17.8 7.4-21 15.8-.8 2.6-1.4 5.6-1.4 8.8v59.8h-17.198v-58c0-15.4-6.8-26.4-20.2-26.4-10.8 0-19 8.8-21.8 17.6-1 2.4-1.4 5.6-1.4 8.6v58.2h-17.2v-70.6zm186.4-53.399c0 6-4.2 10.8-11.2 10.8-6.4 0-10.6-4.8-10.6-10.8 0-6 4.4-11 11-11 6.4 0 10.8 4.8 10.8 11zm-19.6 123.998V67.214h17.6v96.798zm127.798-26.6c0 10.2.2 19 .8 26.6h-15.6l-1-15.8h-.4c-4.4 7.8-14.8 18-32 18-15.2 0-33.398-8.6-33.398-42.399V67.214h17.6v53.4c0 18.4 5.8 31 21.6 31 11.8 0 20-8.2 23.199-16.2 1-2.4 1.6-5.602 1.6-9v-59.2h17.6v70.198zm29.2-43.999c0-10.2-.4-18.2-.8-26.199h15.399l.8 15.8h.6c5.4-9.2 14.4-17.8 30.6-17.8 13 0 23 8 27.2 19.4h.4c3-5.6 7-9.6 11-12.6 5.8-4.4 11.999-6.8 21.199-6.8 13 0 32 8.4 32 41.998v56.8h-17.2v-54.6c0-18.8-7-29.8-21-29.8-10.2 0-17.8 7.4-21 15.8-.8 2.6-1.4 5.6-1.4 8.8v59.8h-17.198v-58c0-15.4-6.8-26.4-20.2-26.4-10.8 0-19 8.8-21.8 17.6-1 2.4-1.4 5.6-1.4 8.6v58.2h-17.2v-70.6z" fill="#77787B"/></svg>