<svg version="1.1" width="1347.7970703125002" height="407.77812500000005" xmlns="http://www.w3.org/2000/svg" xmlns:xlink="http://www.w3.org/1999/xlink">
<defs>
<clipPath id="page">
<rect x="0" y="0" width="1347.7970703125002" height="407.77812500000005" />
</clipPath>
<clipPath id="clip0">
<path d="M 0.00 0.00 L 1251.11 0.00 L 1251.11 -312.78 L 0.00 -312.78"  />
</clipPath>
</defs>
<g clip-path="url(#page)">
<g transform="translate(60,347.77812500000005) rotate(0.000)">
<path d="M 84.34 0.00 L 84.34 -312.78" fill="none" stroke="rgb(204,204,204)" stroke-width="0.8" />
<path d="M 182.75 0.00 L 182.75 -312.78" fill="none" stroke="rgb(204,204,204)" stroke-width="0.8" />
<path d="M 281.15 0.00 L 281.15 -312.78" fill="none" stroke="rgb(204,204,204)" stroke-width="0.8" />
<path d="M 379.55 0.00 L 379.55 -312.78" fill="none" stroke="rgb(204,204,204)" stroke-width="0.8" />
<path d="M 477.95 0.00 L 477.95 -312.78" fill="none" stroke="rgb(204,204,204)" stroke-width="0.8" />
<path d="M 576.36 0.00 L 576.36 -312.78" fill="none" stroke="rgb(204,204,204)" stroke-width="0.8" />
<path d="M 674.76 0.00 L 674.76 -312.78" fill="none" stroke="rgb(204,204,204)" stroke-width="0.8" />
<path d="M 773.16 0.00 L 773.16 -312.78" fill="none" stroke="rgb(204,204,204)" stroke-width="0.8" />
<path d="M 871.56 0.00 L 871.56 -312.78" fill="none" stroke="rgb(204,204,204)" stroke-width="0.8" />
<path d="M 969.96 0.00 L 969.96 -312.78" fill="none" stroke="rgb(204,204,204)" stroke-width="0.8" />
<path d="M 1068.37 0.00 L 1068.37 -312.78" fill="none" stroke="rgb(204,204,204)" stroke-width="0.8" />
<path d="M 1166.77 0.00 L 1166.77 -312.78" fill="none" stroke="rgb(204,204,204)" stroke-width="0.8" />
<path d="M 84.34 0.00 L 84.34 -312.78" fill="none" stroke="rgb(204,204,204)" stroke-width="0.5" />
<path d="M 182.75 0.00 L 182.75 -312.78" fill="none" stroke="rgb(204,204,204)" stroke-width="0.5" />
<path d="M 281.15 0.00 L 281.15 -312.78" fill="none" stroke="rgb(204,204,204)" stroke-width="0.5" />
<path d="M 379.55 0.00 L 379.55 -312.78" fill="none" stroke="rgb(204,204,204)" stroke-width="0.5" />
<path d="M 477.95 0.00 L 477.95 -312.78" fill="none" stroke="rgb(204,204,204)" stroke-width="0.5" />
<path d="M 576.36 0.00 L 576.36 -312.78" fill="none" stroke="rgb(204,204,204)" stroke-width="0.5" />
<path d="M 674.76 0.00 L 674.76 -312.78" fill="none" stroke="rgb(204,204,204)" stroke-width="0.5" />
<path d="M 773.16 0.00 L 773.16 -312.78" fill="none" stroke="rgb(204,204,204)" stroke-width="0.5" />
<path d="M 871.56 0.00 L 871.56 -312.78" fill="none" stroke="rgb(204,204,204)" stroke-width="0.5" />
<path d="M 969.96 0.00 L 969.96 -312.78" fill="none" stroke="rgb(204,204,204)" stroke-width="0.5" />
<path d="M 1068.37 0.00 L 1068.37 -312.78" fill="none" stroke="rgb(204,204,204)" stroke-width="0.5" />
<path d="M 1166.77 0.00 L 1166.77 -312.78" fill="none" stroke="rgb(204,204,204)" stroke-width="0.5" />
<path d="M 0.00 -44.68 L 1251.11 -44.68" fill="none" stroke="rgb(204,204,204)" stroke-width="0.8" />
<path d="M 0.00 -134.05 L 1251.11 -134.05" fill="none" stroke="rgb(204,204,204)" stroke-width="0.8" />
<path d="M 0.00 -223.41 L 1251.11 -223.41" fill="none" stroke="rgb(204,204,204)" stroke-width="0.8" />
<path d="M 0.00 -22.34 L 1251.11 -22.34" fill="none" stroke="rgb(204,204,204)" stroke-width="0.5" />
<path d="M 0.00 -44.68 L 1251.11 -44.68" fill="none" stroke="rgb(204,204,204)" stroke-width="0.5" />
<path d="M 0.00 -67.02 L 1251.11 -67.02" fill="none" stroke="rgb(204,204,204)" stroke-width="0.5" />
<path d="M 0.00 -89.37 L 1251.11 -89.37" fill="none" stroke="rgb(204,204,204)" stroke-width="0.5" />
<path d="M 0.00 -111.71 L 1251.11 -111.71" fill="none" stroke="rgb(204,204,204)" stroke-width="0.5" />
<path d="M 0.00 -134.05 L 1251.11 -134.05" fill="none" stroke="rgb(204,204,204)" stroke-width="0.5" />
<path d="M 0.00 -156.39 L 1251.11 -156.39" fill="none" stroke="rgb(204,204,204)" stroke-width="0.5" />
<path d="M 0.00 -178.73 L 1251.11 -178.73" fill="none" stroke="rgb(204,204,204)" stroke-width="0.5" />
<path d="M 0.00 -201.07 L 1251.11 -201.07" fill="none" stroke="rgb(204,204,204)" stroke-width="0.5" />
<path d="M 0.00 -223.41 L 1251.11 -223.41" fill="none" stroke="rgb(204,204,204)" stroke-width="0.5" />
<path d="M 0.00 -245.75 L 1251.11 -245.75" fill="none" stroke="rgb(204,204,204)" stroke-width="0.5" />
<path d="M 0.00 -268.10 L 1251.11 -268.10" fill="none" stroke="rgb(204,204,204)" stroke-width="0.5" />
<path d="M 0.00 -290.44 L 1251.11 -290.44" fill="none" stroke="rgb(204,204,204)" stroke-width="0.5" />
<g clip-path="url(#clip0)">
<path d="M 0.00 -261.29 L 14.06 -259.55 L 28.11 -257.80 L 42.17 -256.04 L 56.23 -254.26 L 70.29 -252.48 L 84.34 -250.69 L 98.40 -248.88 L 112.46 -247.06 L 126.52 -245.23 L 140.57 -243.39 L 154.63 -241.54 L 168.69 -239.67 L 182.75 -237.79 L 196.80 -235.90 L 210.86 -234.00 L 224.92 -232.08 L 238.98 -230.15 L 253.03 -228.21 L 267.09 -226.25 L 281.15 -224.28 L 295.21 -222.30 L 309.26 -220.30 L 323.32 -218.28 L 337.38 -216.25 L 351.44 -214.21 L 365.49 -212.14 L 379.55 -210.07 L 393.61 -207.97 L 407.67 -205.86 L 421.72 -203.73 L 435.78 -201.59 L 449.84 -199.42 L 463.90 -197.24 L 477.95 -195.04 L 492.01 -192.82 L 506.07 -190.58 L 520.13 -188.33 L 534.18 -186.05 L 548.24 -183.75 L 562.30 -181.43 L 576.36 -179.09 L 590.41 -176.73 L 604.47 -174.35 L 618.53 -171.94 L 632.58 -169.51 L 646.64 -167.05 L 660.70 -164.56 L 674.76 -162.06 L 688.81 -159.52 L 702.87 -156.95 L 716.93 -154.36 L 730.99 -151.74 L 745.04 -149.08 L 759.10 -146.40 L 773.16 -143.68 L 787.22 -140.93 L 801.27 -138.14 L 815.33 -135.33 L 829.39 -132.47 L 843.45 -129.58 L 857.50 -126.66 L 871.56 -123.69 L 885.62 -120.69 L 899.68 -117.65 L 913.73 -114.57 L 927.79 -111.44 L 941.85 -108.28 L 955.91 -105.08 L 969.96 -101.83 L 984.02 -98.54 L 998.08 -95.21 L 1012.14 -91.83 L 1026.19 -88.40 L 1040.25 -84.94 L 1054.31 -81.42 L 1068.37 -77.86 L 1082.42 -74.26 L 1096.48 -70.60 L 1110.54 -66.91 L 1124.60 -63.17 L 1138.65 -59.39 L 1152.71 -55.57 L 1166.77 -51.71 L 1180.83 -47.81 L 1194.88 -43.88 L 1208.94 -39.92 L 1223.00 -35.94 L 1237.06 -31.93 L 1251.11 -27.92" fill="none" stroke="rgb(255,0,0)" stroke-width="2" />
<circle cx="0.00" cy="-261.29" r="3.00" stroke="none" fill="rgb(255,0,0)" />
<circle cx="14.06" cy="-259.55" r="3.00" stroke="none" fill="rgb(255,0,0)" />
<circle cx="28.11" cy="-257.80" r="3.00" stroke="none" fill="rgb(255,0,0)" />
<circle cx="42.17" cy="-256.04" r="3.00" stroke="none" fill="rgb(255,0,0)" />
<circle cx="56.23" cy="-254.26" r="3.00" stroke="none" fill="rgb(255,0,0)" />
<circle cx="70.29" cy="-252.48" r="3.00" stroke="none" fill="rgb(255,0,0)" />
<circle cx="84.34" cy="-250.69" r="3.00" stroke="none" fill="rgb(255,0,0)" />
<circle cx="98.40" cy="-248.88" r="3.00" stroke="none" fill="rgb(255,0,0)" />
<circle cx="112.46" cy="-247.06" r="3.00" stroke="none" fill="rgb(255,0,0)" />
<circle cx="126.52" cy="-245.23" r="3.00" stroke="none" fill="rgb(255,0,0)" />
<circle cx="140.57" cy="-243.39" r="3.00" stroke="none" fill="rgb(255,0,0)" />
<circle cx="154.63" cy="-241.54" r="3.00" stroke="none" fill="rgb(255,0,0)" />
<circle cx="168.69" cy="-239.67" r="3.00" stroke="none" fill="rgb(255,0,0)" />
<circle cx="182.75" cy="-237.79" r="3.00" stroke="none" fill="rgb(255,0,0)" />
<circle cx="196.80" cy="-235.90" r="3.00" stroke="none" fill="rgb(255,0,0)" />
<circle cx="210.86" cy="-234.00" r="3.00" stroke="none" fill="rgb(255,0,0)" />
<circle cx="224.92" cy="-232.08" r="3.00" stroke="none" fill="rgb(255,0,0)" />
<circle cx="238.98" cy="-230.15" r="3.00" stroke="none" fill="rgb(255,0,0)" />
<circle cx="253.03" cy="-228.21" r="3.00" stroke="none" fill="rgb(255,0,0)" />
<circle cx="267.09" cy="-226.25" r="3.00" stroke="none" fill="rgb(255,0,0)" />
<circle cx="281.15" cy="-224.28" r="3.00" stroke="none" fill="rgb(255,0,0)" />
<circle cx="295.21" cy="-222.30" r="3.00" stroke="none" fill="rgb(255,0,0)" />
<circle cx="309.26" cy="-220.30" r="3.00" stroke="none" fill="rgb(255,0,0)" />
<circle cx="323.32" cy="-218.28" r="3.00" stroke="none" fill="rgb(255,0,0)" />
<circle cx="337.38" cy="-216.25" r="3.00" stroke="none" fill="rgb(255,0,0)" />
<circle cx="351.44" cy="-214.21" r="3.00" stroke="none" fill="rgb(255,0,0)" />
<circle cx="365.49" cy="-212.14" r="3.00" stroke="none" fill="rgb(255,0,0)" />
<circle cx="379.55" cy="-210.07" r="3.00" stroke="none" fill="rgb(255,0,0)" />
<circle cx="393.61" cy="-207.97" r="3.00" stroke="none" fill="rgb(255,0,0)" />
<circle cx="407.67" cy="-205.86" r="3.00" stroke="none" fill="rgb(255,0,0)" />
<circle cx="421.72" cy="-203.73" r="3.00" stroke="none" fill="rgb(255,0,0)" />
<circle cx="435.78" cy="-201.59" r="3.00" stroke="none" fill="rgb(255,0,0)" />
<circle cx="449.84" cy="-199.42" r="3.00" stroke="none" fill="rgb(255,0,0)" />
<circle cx="463.90" cy="-197.24" r="3.00" stroke="none" fill="rgb(255,0,0)" />
<circle cx="477.95" cy="-195.04" r="3.00" stroke="none" fill="rgb(255,0,0)" />
<circle cx="492.01" cy="-192.82" r="3.00" stroke="none" fill="rgb(255,0,0)" />
<circle cx="506.07" cy="-190.58" r="3.00" stroke="none" fill="rgb(255,0,0)" />
<circle cx="520.13" cy="-188.33" r="3.00" stroke="none" fill="rgb(255,0,0)" />
<circle cx="534.18" cy="-186.05" r="3.00" stroke="none" fill="rgb(255,0,0)" />
<circle cx="548.24" cy="-183.75" r="3.00" stroke="none" fill="rgb(255,0,0)" />
<circle cx="562.30" cy="-181.43" r="3.00" stroke="none" fill="rgb(255,0,0)" />
<circle cx="576.36" cy="-179.09" r="3.00" stroke="none" fill="rgb(255,0,0)" />
<circle cx="590.41" cy="-176.73" r="3.00" stroke="none" fill="rgb(255,0,0)" />
<circle cx="604.47" cy="-174.35" r="3.00" stroke="none" fill="rgb(255,0,0)" />
<circle cx="618.53" cy="-171.94" r="3.00" stroke="none" fill="rgb(255,0,0)" />
<circle cx="632.58" cy="-169.51" r="3.00" stroke="none" fill="rgb(255,0,0)" />
<circle cx="646.64" cy="-167.05" r="3.00" stroke="none" fill="rgb(255,0,0)" />
<circle cx="660.70" cy="-164.56" r="3.00" stroke="none" fill="rgb(255,0,0)" />
<circle cx="674.76" cy="-162.06" r="3.00" stroke="none" fill="rgb(255,0,0)" />
<circle cx="688.81" cy="-159.52" r="3.00" stroke="none" fill="rgb(255,0,0)" />
<circle cx="702.87" cy="-156.95" r="3.00" stroke="none" fill="rgb(255,0,0)" />
<circle cx="716.93" cy="-154.36" r="3.00" stroke="none" fill="rgb(255,0,0)" />
<circle cx="730.99" cy="-151.74" r="3.00" stroke="none" fill="rgb(255,0,0)" />
<circle cx="745.04" cy="-149.08" r="3.00" stroke="none" fill="rgb(255,0,0)" />
<circle cx="759.10" cy="-146.40" r="3.00" stroke="none" fill="rgb(255,0,0)" />
<circle cx="773.16" cy="-143.68" r="3.00" stroke="none" fill="rgb(255,0,0)" />
<circle cx="787.22" cy="-140.93" r="3.00" stroke="none" fill="rgb(255,0,0)" />
<circle cx="801.27" cy="-138.14" r="3.00" stroke="none" fill="rgb(255,0,0)" />
<circle cx="815.33" cy="-135.33" r="3.00" stroke="none" fill="rgb(255,0,0)" />
<circle cx="829.39" cy="-132.47" r="3.00" stroke="none" fill="rgb(255,0,0)" />
<circle cx="843.45" cy="-129.58" r="3.00" stroke="none" fill="rgb(255,0,0)" />
<circle cx="857.50" cy="-126.66" r="3.00" stroke="none" fill="rgb(255,0,0)" />
<circle cx="871.56" cy="-123.69" r="3.00" stroke="none" fill="rgb(255,0,0)" />
<circle cx="885.62" cy="-120.69" r="3.00" stroke="none" fill="rgb(255,0,0)" />
<circle cx="899.68" cy="-117.65" r="3.00" stroke="none" fill="rgb(255,0,0)" />
<circle cx="913.73" cy="-114.57" r="3.00" stroke="none" fill="rgb(255,0,0)" />
<circle cx="927.79" cy="-111.44" r="3.00" stroke="none" fill="rgb(255,0,0)" />
<circle cx="941.85" cy="-108.28" r="3.00" stroke="none" fill="rgb(255,0,0)" />
<circle cx="955.91" cy="-105.08" r="3.00" stroke="none" fill="rgb(255,0,0)" />
<circle cx="969.96" cy="-101.83" r="3.00" stroke="none" fill="rgb(255,0,0)" />
<circle cx="984.02" cy="-98.54" r="3.00" stroke="none" fill="rgb(255,0,0)" />
<circle cx="998.08" cy="-95.21" r="3.00" stroke="none" fill="rgb(255,0,0)" />
<circle cx="1012.14" cy="-91.83" r="3.00" stroke="none" fill="rgb(255,0,0)" />
<circle cx="1026.19" cy="-88.40" r="3.00" stroke="none" fill="rgb(255,0,0)" />
<circle cx="1040.25" cy="-84.94" r="3.00" stroke="none" fill="rgb(255,0,0)" />
<circle cx="1054.31" cy="-81.42" r="3.00" stroke="none" fill="rgb(255,0,0)" />
<circle cx="1068.37" cy="-77.86" r="3.00" stroke="none" fill="rgb(255,0,0)" />
<circle cx="1082.42" cy="-74.26" r="3.00" stroke="none" fill="rgb(255,0,0)" />
<circle cx="1096.48" cy="-70.60" r="3.00" stroke="none" fill="rgb(255,0,0)" />
<circle cx="1110.54" cy="-66.91" r="3.00" stroke="none" fill="rgb(255,0,0)" />
<circle cx="1124.60" cy="-63.17" r="3.00" stroke="none" fill="rgb(255,0,0)" />
<circle cx="1138.65" cy="-59.39" r="3.00" stroke="none" fill="rgb(255,0,0)" />
<circle cx="1152.71" cy="-55.57" r="3.00" stroke="none" fill="rgb(255,0,0)" />
<circle cx="1166.77" cy="-51.71" r="3.00" stroke="none" fill="rgb(255,0,0)" />
<circle cx="1180.83" cy="-47.81" r="3.00" stroke="none" fill="rgb(255,0,0)" />
<circle cx="1194.88" cy="-43.88" r="3.00" stroke="none" fill="rgb(255,0,0)" />
<circle cx="1208.94" cy="-39.92" r="3.00" stroke="none" fill="rgb(255,0,0)" />
<circle cx="1223.00" cy="-35.94" r="3.00" stroke="none" fill="rgb(255,0,0)" />
<circle cx="1237.06" cy="-31.93" r="3.00" stroke="none" fill="rgb(255,0,0)" />
<circle cx="1251.11" cy="-27.92" r="3.00" stroke="none" fill="rgb(255,0,0)" />
</g>
<path d="M 0.00 0.00 L 1251.11 0.00" fill="none" stroke="rgb(51,51,51)" stroke-width="1.4173225" />
<path d="M 84.34 0.00 L 84.34 -8.00" fill="none" stroke="rgb(51,51,51)" stroke-width="2.5" />
<g transform="translate(84.34450021945227,6) rotate(0.000)">
<text x="0.00" y="15.40" font-family="Arial,Helvetica,sans-serif" font-size="15.400000000000002" text-anchor="middle" stroke="none" fill="rgb(0,0,0)" >9 Jul </text>
</g>
<path d="M 182.75 0.00 L 182.75 -8.00" fill="none" stroke="rgb(51,51,51)" stroke-width="2.5" />
<g transform="translate(182.7466069610253,6) rotate(0.000)">
<text x="0.00" y="15.40" font-family="Arial,Helvetica,sans-serif" font-size="15.400000000000002" text-anchor="middle" stroke="none" fill="rgb(0,0,0)" >16 Jul </text>
</g>
<path d="M 281.15 0.00 L 281.15 -8.00" fill="none" stroke="rgb(51,51,51)" stroke-width="2.5" />
<g transform="translate(281.14871370259834,6) rotate(0.000)">
<text x="0.00" y="15.40" font-family="Arial,Helvetica,sans-serif" font-size="15.400000000000002" text-anchor="middle" stroke="none" fill="rgb(0,0,0)" >23 Jul </text>
</g>
<path d="M 379.55 0.00 L 379.55 -8.00" fill="none" stroke="rgb(51,51,51)" stroke-width="2.5" />
<g transform="translate(379.5508204441714,6) rotate(0.000)">
<text x="0.00" y="15.40" font-family="Arial,Helvetica,sans-serif" font-size="15.400000000000002" text-anchor="middle" stroke="none" fill="rgb(0,0,0)" >30 Jul </text>
</g>
<path d="M 477.95 0.00 L 477.95 -8.00" fill="none" stroke="rgb(51,51,51)" stroke-width="2.5" />
<g transform="translate(477.95292718574444,6) rotate(0.000)">
<text x="0.00" y="15.40" font-family="Arial,Helvetica,sans-serif" font-size="15.400000000000002" text-anchor="middle" stroke="none" fill="rgb(0,0,0)" >6 Aug </text>
</g>
<path d="M 576.36 0.00 L 576.36 -8.00" fill="none" stroke="rgb(51,51,51)" stroke-width="2.5" />
<g transform="translate(576.3550339273174,6) rotate(0.000)">
<text x="0.00" y="15.40" font-family="Arial,Helvetica,sans-serif" font-size="15.400000000000002" text-anchor="middle" stroke="none" fill="rgb(0,0,0)" >13 Aug </text>
</g>
<path d="M 674.76 0.00 L 674.76 -8.00" fill="none" stroke="rgb(51,51,51)" stroke-width="2.5" />
<g transform="translate(674.7571406688904,6) rotate(0.000)">
<text x="0.00" y="15.40" font-family="Arial,Helvetica,sans-serif" font-size="15.400000000000002" text-anchor="middle" stroke="none" fill="rgb(0,0,0)" >20 Aug </text>
</g>
<path d="M 773.16 0.00 L 773.16 -8.00" fill="none" stroke="rgb(51,51,51)" stroke-width="2.5" />
<g transform="translate(773.1592474104636,6) rotate(0.000)">
<text x="0.00" y="15.40" font-family="Arial,Helvetica,sans-serif" font-size="15.400000000000002" text-anchor="middle" stroke="none" fill="rgb(0,0,0)" >27 Aug </text>
</g>
<path d="M 871.56 0.00 L 871.56 -8.00" fill="none" stroke="rgb(51,51,51)" stroke-width="2.5" />
<g transform="translate(871.5613541520366,6) rotate(0.000)">
<text x="0.00" y="15.40" font-family="Arial,Helvetica,sans-serif" font-size="15.400000000000002" text-anchor="middle" stroke="none" fill="rgb(0,0,0)" >3 Sep </text>
</g>
<path d="M 969.96 0.00 L 969.96 -8.00" fill="none" stroke="rgb(51,51,51)" stroke-width="2.5" />
<g transform="translate(969.9634608936096,6) rotate(0.000)">
<text x="0.00" y="15.40" font-family="Arial,Helvetica,sans-serif" font-size="15.400000000000002" text-anchor="middle" stroke="none" fill="rgb(0,0,0)" >10 Sep </text>
</g>
<path d="M 1068.37 0.00 L 1068.37 -8.00" fill="none" stroke="rgb(51,51,51)" stroke-width="2.5" />
<g transform="translate(1068.3655676351827,6) rotate(0.000)">
<text x="0.00" y="15.40" font-family="Arial,Helvetica,sans-serif" font-size="15.400000000000002" text-anchor="middle" stroke="none" fill="rgb(0,0,0)" >17 Sep </text>
</g>
<path d="M 1166.77 0.00 L 1166.77 -8.00" fill="none" stroke="rgb(51,51,51)" stroke-width="2.5" />
<g transform="translate(1166.7676743767558,6) rotate(0.000)">
<text x="0.00" y="15.40" font-family="Arial,Helvetica,sans-serif" font-size="15.400000000000002" text-anchor="middle" stroke="none" fill="rgb(0,0,0)" >24 Sep </text>
</g>
<path d="M 84.34 0.00 L 84.34 -4.00" fill="none" stroke="rgb(51,51,51)" stroke-width="2.5" />
<path d="M 182.75 0.00 L 182.75 -4.00" fill="none" stroke="rgb(51,51,51)" stroke-width="2.5" />
<path d="M 281.15 0.00 L 281.15 -4.00" fill="none" stroke="rgb(51,51,51)" stroke-width="2.5" />
<path d="M 379.55 0.00 L 379.55 -4.00" fill="none" stroke="rgb(51,51,51)" stroke-width="2.5" />
<path d="M 477.95 0.00 L 477.95 -4.00" fill="none" stroke="rgb(51,51,51)" stroke-width="2.5" />
<path d="M 576.36 0.00 L 576.36 -4.00" fill="none" stroke="rgb(51,51,51)" stroke-width="2.5" />
<path d="M 674.76 0.00 L 674.76 -4.00" fill="none" stroke="rgb(51,51,51)" stroke-width="2.5" />
<path d="M 773.16 0.00 L 773.16 -4.00" fill="none" stroke="rgb(51,51,51)" stroke-width="2.5" />
<path d="M 871.56 0.00 L 871.56 -4.00" fill="none" stroke="rgb(51,51,51)" stroke-width="2.5" />
<path d="M 969.96 0.00 L 969.96 -4.00" fill="none" stroke="rgb(51,51,51)" stroke-width="2.5" />
<path d="M 1068.37 0.00 L 1068.37 -4.00" fill="none" stroke="rgb(51,51,51)" stroke-width="2.5" />
<path d="M 1166.77 0.00 L 1166.77 -4.00" fill="none" stroke="rgb(51,51,51)" stroke-width="2.5" />
<g transform="translate(625.5562500000001,49.00000000000001) rotate(0.000)">
<text x="0.00" y="0.00" font-family="Arial,Helvetica,sans-serif" font-size="16.8" text-anchor="middle" stroke="none" fill="rgb(0,0,0)" >2026 </text>
</g>
<path d="M 0.00 -312.78 L 1251.11 -312.78" fill="none" stroke="rgb(51,51,51)" stroke-width="1.4173225" />
<path d="M 84.34 -312.78 L 84.34 -304.78" fill="none" stroke="rgb(51,51,51)" stroke-width="2.5" />
<path d="M 182.75 -312.78 L 182.75 -304.78" fill="none" stroke="rgb(51,51,51)" stroke-width="2.5" />
<path d="M 281.15 -312.78 L 281.15 -304.78" fill="none" stroke="rgb(51,51,51)" stroke-width="2.5" />
<path d="M 379.55 -312.78 L 379.55 -304.78" fill="none" stroke="rgb(51,51,51)" stroke-width="2.5" />
<path d="M 477.95 -312.78 L 477.95 -304.78" fill="none" stroke="rgb(51,51,51)" stroke-width="2.5" />
<path d="M 576.36 -312.78 L 576.36 -304.78" fill="none" stroke="rgb(51,51,51)" stroke-width="2.5" />
<path d="M 674.76 -312.78 L 674.76 -304.78" fill="none" stroke="rgb(51,51,51)" stroke-width="2.5" />
<path d="M 773.16 -312.78 L 773.16 -304.78" fill="none" stroke="rgb(51,51,51)" stroke-width="2.5" />
<path d="M 871.56 -312.78 L 871.56 -304.78" fill="none" stroke="rgb(51,51,51)" stroke-width="2.5" />
<path d="M 969.96 -312.78 L 969.96 -304.78" fill="none" stroke="rgb(51,51,51)" stroke-width="2.5" />
<path d="M 1068.37 -312.78 L 1068.37 -304.78" fill="none" stroke="rgb(51,51,51)" stroke-width="2.5" />
<path d="M 1166.77 -312.78 L 1166.77 -304.78" fill="none" stroke="rgb(51,51,51)" stroke-width="2.5" />
<path d="M 84.34 -312.78 L 84.34 -308.78" fill="none" stroke="rgb(51,51,51)" stroke-width="2.5" />
<path d="M 182.75 -312.78 L 182.75 -308.78" fill="none" stroke="rgb(51,51,51)" stroke-width="2.5" />
<path d="M 281.15 -312.78 L 281.15 -308.78" fill="none" stroke="rgb(51,51,51)" stroke-width="2.5" />
<path d="M 379.55 -312.78 L 379.55 -308.78" fill="none" stroke="rgb(51,51,51)" stroke-width="2.5" />
<path d="M 477.95 -312.78 L 477.95 -308.78" fill="none" stroke="rgb(51,51,51)" stroke-width="2.5" />
<path d="M 576.36 -312.78 L 576.36 -308.78" fill="none" stroke="rgb(51,51,51)" stroke-width="2.5" />
<path d="M 674.76 -312.78 L 674.76 -308.78" fill="none" stroke="rgb(51,51,51)" stroke-width="2.5" />
<path d="M 773.16 -312.78 L 773.16 -308.78" fill="none" stroke="rgb(51,51,51)" stroke-width="2.5" />
<path d="M 871.56 -312.78 L 871.56 -308.78" fill="none" stroke="rgb(51,51,51)" stroke-width="2.5" />
<path d="M 969.96 -312.78 L 969.96 -308.78" fill="none" stroke="rgb(51,51,51)" stroke-width="2.5" />
<path d="M 1068.37 -312.78 L 1068.37 -308.78" fill="none" stroke="rgb(51,51,51)" stroke-width="2.5" />
<path d="M 1166.77 -312.78 L 1166.77 -308.78" fill="none" stroke="rgb(51,51,51)" stroke-width="2.5" />
<path d="M 0.00 0.00 L 0.00 -312.78" fill="none" stroke="rgb(51,51,51)" stroke-width="1.4173225" />
<path d="M 0.00 -44.68 L 8.00 -44.68" fill="none" stroke="rgb(51,51,51)" stroke-width="2.5" />
<g transform="translate(-6,-44.68258928571429) rotate(0.000)">
<text x="0.00" y="7.70" font-family="Arial,Helvetica,sans-serif" font-size="15.400000000000002" text-anchor="end" stroke="none" fill="rgb(0,0,0)" >20</text>
</g>
<path d="M 0.00 -134.05 L 8.00 -134.05" fill="none" stroke="rgb(51,51,51)" stroke-width="2.5" />
<g transform="translate(-6,-134.04776785714287) rotate(0.000)">
<text x="0.00" y="7.70" font-family="Arial,Helvetica,sans-serif" font-size="15.400000000000002" text-anchor="end" stroke="none" fill="rgb(0,0,0)" >40</text>
</g>
<path d="M 0.00 -223.41 L 8.00 -223.41" fill="none" stroke="rgb(51,51,51)" stroke-width="2.5" />
<g transform="translate(-6,-223.41294642857147) rotate(0.000)">
<text x="0.00" y="7.70" font-family="Arial,Helvetica,sans-serif" font-size="15.400000000000002" text-anchor="end" stroke="none" fill="rgb(0,0,0)" >60</text>
</g>
<g transform="translate(-6,-312.77812500000005) rotate(0.000)">
<text x="0.00" y="7.70" font-family="Arial,Helvetica,sans-serif" font-size="15.400000000000002" text-anchor="end" stroke="none" fill="rgb(0,0,0)" >80</text>
</g>
<path d="M 0.00 -22.34 L 4.00 -22.34" fill="none" stroke="rgb(51,51,51)" stroke-width="2.5" />
<path d="M 0.00 -44.68 L 4.00 -44.68" fill="none" stroke="rgb(51,51,51)" stroke-width="2.5" />
<path d="M 0.00 -67.02 L 4.00 -67.02" fill="none" stroke="rgb(51,51,51)" stroke-width="2.5" />
<path d="M 0.00 -89.37 L 4.00 -89.37" fill="none" stroke="rgb(51,51,51)" stroke-width="2.5" />
<path d="M 0.00 -111.71 L 4.00 -111.71" fill="none" stroke="rgb(51,51,51)" stroke-width="2.5" />
<path d="M 0.00 -134.05 L 4.00 -134.05" fill="none" stroke="rgb(51,51,51)" stroke-width="2.5" />
<path d="M 0.00 -156.39 L 4.00 -156.39" fill="none" stroke="rgb(51,51,51)" stroke-width="2.5" />
<path d="M 0.00 -178.73 L 4.00 -178.73" fill="none" stroke="rgb(51,51,51)" stroke-width="2.5" />
<path d="M 0.00 -201.07 L 4.00 -201.07" fill="none" stroke="rgb(51,51,51)" stroke-width="2.5" />
<path d="M 0.00 -223.41 L 4.00 -223.41" fill="none" stroke="rgb(51,51,51)" stroke-width="2.5" />
<path d="M 0.00 -245.75 L 4.00 -245.75" fill="none" stroke="rgb(51,51,51)" stroke-width="2.5" />
<path d="M 0.00 -268.10 L 4.00 -268.10" fill="none" stroke="rgb(51,51,51)" stroke-width="2.5" />
<path d="M 0.00 -290.44 L 4.00 -290.44" fill="none" stroke="rgb(51,51,51)" stroke-width="2.5" />
<g transform="translate(-50.6845703125,-156.38906250000002) rotate(-90.000)">
<text x="0.00" y="16.80" font-family="Arial,Helvetica,sans-serif" font-size="16.8" text-anchor="middle" stroke="none" fill="rgb(0,0,0)" >Phase / %</text>
</g>
<path d="M 1251.11 0.00 L 1251.11 -312.78" fill="none" stroke="rgb(51,51,51)" stroke-width="1.4173225" />
<path d="M 1251.11 -44.68 L 1243.11 -44.68" fill="none" stroke="rgb(51,51,51)" stroke-width="2.5" />
<path d="M 1251.11 -134.05 L 1243.11 -134.05" fill="none" stroke="rgb(51,51,51)" stroke-width="2.5" />
<path d="M 1251.11 -223.41 L 1243.11 -223.41" fill="none" stroke="rgb(51,51,51)" stroke-width="2.5" />
<path d="M 1251.11 -22.34 L 1247.11 -22.34" fill="none" stroke="rgb(51,51,51)" stroke-width="2.5" />
<path d="M 1251.11 -44.68 L 1247.11 -44.68" fill="none" stroke="rgb(51,51,51)" stroke-width="2.5" />
<path d="M 1251.11 -67.02 L 1247.11 -67.02" fill="none" stroke="rgb(51,51,51)" stroke-width="2.5" />
<path d="M 1251.11 -89.37 L 1247.11 -89.37" fill="none" stroke="rgb(51,51,51)" stroke-width="2.5" />
<path d="M 1251.11 -111.71 L 1247.11 -111.71" fill="none" stroke="rgb(51,51,51)" stroke-width="2.5" />
<path d="M 1251.11 -134.05 L 1247.11 -134.05" fill="none" stroke="rgb(51,51,51)" stroke-width="2.5" />
<path d="M 1251.11 -156.39 L 1247.11 -156.39" fill="none" stroke="rgb(51,51,51)" stroke-width="2.5" />
<path d="M 1251.11 -178.73 L 1247.11 -178.73" fill="none" stroke="rgb(51,51,51)" stroke-width="2.5" />
<path d="M 1251.11 -201.07 L 1247.11 -201.07" fill="none" stroke="rgb(51,51,51)" stroke-width="2.5" />
<path d="M 1251.11 -223.41 L 1247.11 -223.41" fill="none" stroke="rgb(51,51,51)" stroke-width="2.5" />
<path d="M 1251.11 -245.75 L 1247.11 -245.75" fill="none" stroke="rgb(51,51,51)" stroke-width="2.5" />
<path d="M 1251.11 -268.10 L 1247.11 -268.10" fill="none" stroke="rgb(51,51,51)" stroke-width="2.5" />
<path d="M 1251.11 -290.44 L 1247.11 -290.44" fill="none" stroke="rgb(51,51,51)" stroke-width="2.5" />
</g>
</g>
</svg>
